<svg width="108" height="32" viewBox="0 0 108 32" fill="none" xmlns="http://www.w3.org/2000/svg">
<rect x="0.5" y="0.5" width="107" height="31" rx="0.5" fill="white"/>
<path d="M16.6719 20.8125V19.5312H23V16.4844H24.5V19.5312H30.7969V20.8125H16.6719ZM18.4219 16.0781V9.01562H23.2031V10.2969H19.8438V14.8125H20.0781C21.349 14.8125 22.4427 14.7552 23.3594 14.6406V15.8594C22.0573 16.0052 20.5885 16.0781 18.9531 16.0781H18.4219ZM23.9062 16.0781V9.01562H29.1719V10.2969H25.3281V14.8125H29.2812V16.0781H23.9062ZM31.5944 20.6562V19.3906H45.7194V20.6562H31.5944ZM32.4069 15.4688C33.2402 15.125 34.0631 14.6667 34.8756 14.0938C35.6881 13.5208 36.4017 12.8229 37.0162 12C37.6412 11.1667 37.9537 10.3542 37.9537 9.5625V8.8125H39.4225V9.5625C39.4225 10.1667 39.6048 10.7865 39.9694 11.4219C40.3444 12.0469 40.8183 12.6146 41.3912 13.125C41.9642 13.6354 42.5579 14.0885 43.1725 14.4844C43.7871 14.8802 44.3808 15.1979 44.9537 15.4375L44.1256 16.5156C43.136 16.099 42.0944 15.4531 41.0006 14.5781C39.9173 13.7031 39.1465 12.8125 38.6881 11.9062C38.2506 12.8021 37.5006 13.6823 36.4381 14.5469C35.3756 15.4115 34.3079 16.0781 33.235 16.5469L32.4069 15.4688ZM57.0481 22.4062V7.9375H58.5169V13.9062H60.8606V15.3281H58.5169V22.4062H57.0481ZM47.7825 19.3906V9.35938H54.8919V10.5938H49.22V13.7031H54.5794V14.9219H49.22V18.1562H49.5325C51.5429 18.1562 53.6679 18.0156 55.9075 17.7344V18.9062C53.5012 19.2292 50.9648 19.3906 48.2981 19.3906H47.7825ZM61.4394 20.4844V19.2031H75.5644V20.4844H61.4394ZM63.3456 10.7812V9.45312H73.5956C73.5956 12.4219 73.2935 15.2188 72.6894 17.8438H71.2206C71.5123 16.6354 71.7363 15.375 71.8925 14.0625C72.0488 12.75 72.1269 11.6562 72.1269 10.7812H63.3456ZM79.19 22.25V17.5938H89.3619V22.25H79.19ZM80.6431 21.0469H87.9087V18.7969H80.6431V21.0469ZM84.9556 16.6562V8.125H86.2212V11.8594H87.9869V7.9375H89.3619V16.8906H87.9869V13.1562H86.2212V16.6562H84.9556ZM77.44 16.125V11.8438H82.0181V9.9375H77.3775V8.76562H83.4244V12.9688H78.8462V14.9531H79.2212C81.1171 14.9531 82.8358 14.8698 84.3775 14.7031V15.8125C82.3567 16.0208 80.2681 16.125 78.1119 16.125H77.44Z" fill="#63A1FF"/>
<rect x="0.5" y="0.5" width="107" height="31" rx="0.5" stroke="#63A1FF"/>
</svg>
